<?xml version="1.0" encoding="iso-8859-1"?>
<!-- Generator: Adobe Illustrator 19.0.0, SVG Export Plug-In . SVG Version: 6.00 Build 0)  -->
<svg version="1.1" id="Capa_1" xmlns="http://www.w3.org/2000/svg" xmlns:xlink="http://www.w3.org/1999/xlink" x="0px" y="0px"
	 viewBox="0 0 490.688 490.688" style="enable-background:new 0 0 490.688 490.688;" xml:space="preserve">
<g>
	<path style="fill:#2196F3;" d="M202.667,229.329c24.341-14.656,32-28.651,32-64c0-47.128-38.205-85.333-85.333-85.333
		C74.539,80.273,0,79.995,0,79.995v320h192c35.346,0,64-28.654,64-64v-21.333C256,279.313,257.323,242.662,202.667,229.329z
		 M64,143.995h74.667c17.673,0,32,14.327,32,32s-14.327,32-32,32H64V143.995z M160,335.995H64v-64h96c17.673,0,32,14.327,32,32
		S177.673,335.995,160,335.995z"/>
	<rect x="298.667" y="79.995" style="fill:#2196F3;" width="149.333" height="64"/>
	<path style="fill:#2196F3;" d="M424.533,331.302c-20.719,28.316-60.47,34.475-88.787,13.756
		c-10.407-7.615-18.251-18.217-22.488-30.396h176.085c0.847-5.292,1.297-10.641,1.344-16c-1.502-63.324-54.029-113.454-117.355-112
		c-63.317-1.443-115.831,48.684-117.333,112c1.502,63.316,54.016,113.443,117.333,112c50.663,0.685,95.992-31.367,112.235-79.36
		H424.533z M373.333,229.329c27.043,0.055,51.115,17.151,60.075,42.667H313.259C322.219,246.48,346.29,229.384,373.333,229.329z"/>
</g>
<g>
</g>
<g>
</g>
<g>
</g>
<g>
</g>
<g>
</g>
<g>
</g>
<g>
</g>
<g>
</g>
<g>
</g>
<g>
</g>
<g>
</g>
<g>
</g>
<g>
</g>
<g>
</g>
<g>
</g>
</svg>
